<svg id="svg8" height="512" viewBox="0 0 16.933333 16.933333" width="512" xmlns="http://www.w3.org/2000/svg" xmlns:svg="http://www.w3.org/2000/svg"><g id="layer2"><path id="path3999" d="m8.91909 13.305864c-.777719-.208364-1.605809.014-2.17411.5823-.568789.568789-.79101 1.397773-.58298 2.1748.777021.208023 1.60601-.0142 2.17479-.582988.568301-.5683.79067-1.39639.5823-2.174112z" fill="#ff6b3c"/><path id="path4002" d="m8.91909 13.152386c-.777719.208364-1.605809-.014-2.17411-.5823-.568789-.568789-.79101-1.397773-.58298-2.1748.777021-.208023 1.60601.0142 2.17479.582988.568301.5683.79067 1.39639.5823 2.174112z" fill="#ff6b3c"/><path id="path4004" d="m8.99583 12.699959c1.863971-.167411 3.303331-1.349983 3.303331-3.0932356 0-1.4823592-1.1359-2.828144-2.575081-3.30467h-.46366v-4.185429c.352777.0009196.705553.0018 1.058331.0018 3.07816 0 5.82083 2.595303 5.82083 5.8190659 0 3.2237627-2.38125 5.8190657-6.085411 5.8190657h-1.0418z" fill="#ff6b3c"/><path id="path4008" d="m10.18697 6.2688273h-.46353l.00053.03307c1.43918.476526 2.57503 1.8223489 2.57503 3.3047081 0 1.7432516-1.43919 2.9259396-3.07164 3.0768136 2.09547-.183947 3.53466-1.366633 3.534655-3.1098856-.000004-1.4823572-1.135854-2.8281801-2.575045-3.3047061z" fill="#ffa88d"/><path id="path4011" d="m3.704171 2.1166264h5.714999c.791521 0 1.428751.944033 1.428751 2.1166659 0 1.172633-.63723 2.1166671-1.428751 2.1166671h-2.010839c-2.107141 0-3.70416-1.814286-3.70416-4.233333z" fill="#ff6b3c"/><path id="path4016" d="m15.610421 7.4082925c0 3.2237625-2.38125 5.8192825-6.08542 5.8192825h-.5209l.008.529167h1.0418c3.70416 0 6.08541-2.59552 6.08541-5.8192826 0-1.7210151-.78575-3.2581561-1.982685-4.3217001.893705 1.0174919 1.453795 2.3398471 1.453795 3.7925332z" fill="#ff4e15"/><path id="path4018" d="m6.093681 15.602107c.008.154072.0274.308524.0682.460954.777019.208023 1.606269-.01412 2.175059-.58291.568301-.5683.79076-1.396822.58239-2.174545-.152469-.04085-.30695-.05983-.46094-.06821.03441.631545-.19371 1.256702-.6506 1.713588-.45721.457209-1.08278.685238-1.714109.651123z" fill="#ff4e15"/><path id="path4020" d="m6.1619 16.063061c.08.02142.16106.03515.24184.04754-.113349-.708247.11415-1.433959.62787-1.947684.5099-.509897 1.228551-.738257 1.9327-.629936-.0122-.07598-.0248-.152061-.045-.227377-.19443-.05209-.392199-.07691-.58806-.07648-.58762.0013-1.16022.23265-1.586439.658875-.568791.56879-.790941 1.398035-.582911 2.175062z" fill="#ffa88d"/><path id="ellipse4022" d="m6.8623796 14.135064c-.069938.08397-.075144.194927-.011629.247829.063515.0529.1717017.02772.2416402-.05625.069938-.08397.075145-.194927.011628-.247829-.063515-.0529-.1717015-.02772-.2416393.05625z" fill="#ffa88d"/><path id="path4028" d="m6.1619 10.395191c-.20803.777027.0141 1.606272.582911 2.175061.568299.5683 1.396819.790757 2.17454.582394.005-.01762.006-.03556.0103-.05323-.664041.06492-1.33004-.164736-1.81023-.644922-.5559-.555904-.77755-1.360266-.59322-2.121834-.12184.01188-.24378.03026-.364301.06253z" fill="#ffa88d"/><path id="path4030" d="m6.749461 10.318709c-.0909-.000217-.18176.0061-.272851.01705.495581.05807.967001.27816 1.33118.642338.568301.5683.79076 1.396823.582401 2.174545-.104391.02797-.20978.04678-.315231.05943.27837.03257.56462.01552.844391-.05943.20837-.777722-.0141-1.606245-.58239-2.174545-.42659-.426591-.99988-.657988-1.5875-.659391z" fill="#ff4e15"/><path id="ellipse4032" d="m6.6903129 11.405483a.19787034.14967114 72.364927 0 1 -.082692.233916.19787034.14967114 72.364927 0 1 -.202583-.143229.19787034.14967114 72.364927 0 1 .082692-.233914.19787034.14967114 72.364927 0 1 .2025826.143227z" fill="#ffa88d"/><path id="path4039" d="m9.934281 2.2597694c.238109.377828.38447.884276.38447 1.444357 0 1.172633-.637331 2.1166658-1.42885 2.1166658h-2.010731c-.83474 0-1.58713-.2881378-2.19418-.7823808.66724.81511 1.624601 1.311548 2.723341 1.311548h2.010729c.79153 0 1.428861-.9440341 1.428861-2.1166671 0-.902884-.37853-1.6682579-.91364-1.9735229z" fill="#ff4e15"/><path id="ellipse4041" d="m4.8033105 3.9200723c.0743616.1618221.0354152.3386036-.0869886.3948514-.1224043.0562469-.2819137-.0293376-.3562753-.1911598-.0743616-.1618221-.0354157-.3386022.0869877-.3948509.1224038-.0562479.2819146.0293372.3562762.1911593z" fill="#ffa88d"/><path id="ellipse4048" d="m12.691775 8.0561724c.09807.2134173.04671.4465623-.114723.5207439-.161431.074182-.371799-.03869-.46987-.2521077-.09807-.2134173-.04671-.4465624.114724-.520744.16143-.074182.371798.03869.469869.2521078z" fill="#ffa88d"/><g fill="#ff5d29"><path id="path4083" d="m7.49159 14.343837c.165221-.111541.231571-.260918.35044-.159165.11887.10174.0534.364106-.11183.475658-.165209.11154-.43546.08408-.48646-.0717-.0361-.110353.0826-.133237.24785-.24479z"/><path id="path4085" d="m7.62051 11.705697c-.111539-.165216-.260919-.231565-.159169-.350439.10174-.118874.364109-.05345.47566.111827.111539.165215.0841.43546-.0717.486464-.11035.03613-.133241-.08264-.244791-.247852z"/><path id="path4088" d="m14.092551 6.0460272c-.25849-.3828838-.60467-.5366469-.36886-.8121348.23578-.2754881.84381-.1238692 1.10233.259157.25849.382882.19485 1.009169-.166175 1.1273704-.255735.083727-.308775-.1915196-.567295-.5743926z"/><path id="path4091" d="m8.6542 3.7970695c-.258489-.3828852-.60467-.5366472-.36886-.8121351.23578-.275488.843811-.123869 1.10233.2591559.25849.3828831.19485 1.0091701-.16617 1.1273716-.255739.083727-.30877-.1915194-.5673-.5743924z"/></g><path id="path4013" d="m3.704171 2.1166264c0 2.419047 1.597019 4.233333 3.70416 4.233333h2.010729c.16422 0 .321061-.04295.467681-.1178221-.009.0002291-.0171.00209-.0258.00209h-2.01073c-2.07296.0000132-3.64883-1.757376-3.69952-4.1175649z" fill="#ffa88d"/><path id="path4133" d="m3.0430852.52920167c-.6874313 0-1.2541494.46940804-1.4122405 1.10174343-.6384941.1580954-1.10167804.7320846-1.10167804 1.4123201 0 .8016107.64736354 1.454695 1.45512814 1.454695h2.0226061c.6155555 1.1628657 1.6777457 1.9385096 2.9499341 2.0897997l-.5684081.9482642c-.052998.08759-.050897.1989015.006.2842216l.5291403.7932348c.2037785.2902204.6325043.0018.4366453-.2981737l-.4325152-.6490574.6299046-1.0511014h.7058605l-.552389.9219101c-.052998.08759-.050898.1978675.006.2831876l.5291401.7932348c.1983988.2901376.6324543.0023.4412952-.2930059l-.4371649-.6542252.6314544-1.0511014h.5384396c.059496 0 .1176632-.0047.17517-.01292l-.5622082.9348282c-.052397.08796-.049398.1982485.008.2831876l.5244901.7870338c.2027485.3005506.6350843.008.4443953-.2868046l-.4356151-.6542254.5472301-.9131241c1.116827.5613063 1.913472 1.6731559 1.913472 2.8540953 0 .7874392-.321832 1.4501952-.865021 1.9399382-.485632.437854-1.154195.740963-1.9150226.855764-.0403977-.598514-.2947936-1.175387-.731179-1.611792-.6352742-.635316-1.5597123-.8835295-2.4296832-.650608-.091094.02407-.1625609.0947-.1875795.185518-.2323369.867912.017398 1.796583.6526332 2.431899.1969889.196993.4245461.358012.6552233.471808-.2425965.119687-.4582643.274326-.6552233.47129-.6352741.635316-.8849701 1.561921-.6526332 2.429831.024398.09157.095994.163169.1875795.187585.8678512.232355 1.794409-.01529 2.4296832-.650607.445375-.445398.7015706-1.034596.7337689-1.646414h.7973157c3.831925 0 6.349132-2.6962 6.349132-6.0838807 0-3.3738354-2.866197-6.0838794-6.085587-6.0838794-2.1307207-.0045-4.419182-.0021-6.6126684-.0021-.1469217-.0005662-.2661651.1186823-.2655952.2656166 0 .2719395.018898.5356731.056796.7927177h-.4531762c-.4720335 0-.8547619-.3454067-.9174584-.7927177h.5206007c.3528502 0 .3528502-.5291682 0-.5291682h-.4421451c.1468117-.314076.4646138-.5291684.8390028-.5291684h7.2746018c.35284 0 .35284-.52968423 0-.52968423zm-1.440139 1.66760163c.1019443.7079116.71128 1.2428219 1.440139 1.2428219h.5575587c.046798.1821983.1010442.3582368.1663807.529167h-1.7827298c-.5113712 0-.9254779-.4079221-.9254779-.925527 0-.3814328.2276072-.7034325.5441293-.8464619zm7.8223298.1844843c.2822745.0022.5632287.1733174.784927.5017792.223167.3306407.372049.8108828.372049 1.349275 0 .538392-.148882 1.0212183-.372049 1.351859-.2231683.3306385-.5093422.5017791-.7906067.5017791h-2.0116467c-1.5495729 0-2.8081321-1.0642453-3.2590567-2.6463558h.6123357c.3528401 0 .3528401-.5296853 0-.5296853h-.729629c-.0275985-.1722723-.0464974-.3477547-.0563118-.5291671 1.8045933.0016 3.6453899-.0025 5.4499882.0005159zm1.070161.00518c.88264.02988 1.741262.2871645 2.48602.7069344.166771 1.8671293-.644304 3.2147422-1.538843 3.9677258-.327502-.3249768-.707341-.5981954-1.126477-.8020197.125693-.1086784.236637-.2363727.333811-.3803399.293294-.434537.461954-1.0121711.461954-1.6464147 0-.6342444-.16866-1.2098106-.461954-1.6443476-.048-.07111-.0992-.1382792-.154511-.2015383zm3.035819 1.0593693c.947167.6859245 1.676986 1.6470647 2.051955 2.75436-.390659 1.4583133-1.627199 2.5073536-3.073017 2.8292903-.102455-.5675643-.35715-1.1078645-.71671-1.5709665.940737-.7981297 1.78044-2.1570526 1.737772-4.0126838zm1.818398 6.924656c-.564788.311142-1.204712.476976-1.856116.476976-.378618 0-.752778-.05437-1.115627-.164331.119993-.331504.186019-.6941795.186019-1.0759063 0-.01633.00024-.03126 0-.04754 1.389402-.2899156 2.619293-1.1756483 3.244588-2.4556694.0432.2730876.0656.5487804.06561.8335412.000008.8729692-.187971 1.7017611-.524472 2.4329295zm-7.1996761.795821c.4560942.456123.6664124 1.113838.5477392 1.765271-.6600729.1166-1.3101064-.09268-1.7662007-.548805-.4564944-.456516-.6678925-1.109403-.5487693-1.767338.7643671-.130763 1.3686832.164075 1.7672308.550872zm3.3324231.810806c.0133-.01165.0272-.02381.0403-.03566.250916-.226228.463124-.483667.630415-.774632.433765.139677.88477.210323 1.340414.210323.486713 0 .955216-.07709 1.412751-.234611-.457945.659957-1.07762 1.226259-1.831303 1.63143-.773073-.100163-1.117244-.35776-1.592577-.79685zm-.430955.321945c.395947.364999.714669.645186 1.219501.829409-.493382.174056-1.019903.288854-1.59723.337447-.233057-.272395-.370539-.51929-.436646-.767914.291934-.105499.564189-.238695.814375-.398942zm-1.3228367.550359c.060696.217381.159441.429704.3002137.642856h-.7999059c-.0136-.08486-.033298-.178941-.056796-.262516.025197-.09661.046398-.188763.059391-.289908.1703953-.02232.3343464-.05197.4970973-.09043zm-1.0308922.677991c.1199831.658866-.096394 1.313408-.5529089 1.769922-.4564843.456515-1.1166572.661159-1.7620611.544671-.1132934-.614267.064496-1.281453.5487693-1.765787.2508957-.250916.5403096-.418233.8903299-.515733.2568954-.06769.5426595-.09261.8758708-.03307z" font-variant-ligatures="normal" font-variant-position="normal" font-variant-caps="normal" font-variant-numeric="normal" font-variant-alternates="normal" font-feature-settings="normal" text-indent="0" text-align="start" text-decoration-line="none" text-decoration-style="solid" text-decoration-color="#000000" text-transform="none" text-orientation="mixed" white-space="normal" shape-padding="0" isolation="auto" mix-blend-mode="normal" solid-color="#000000" solid-opacity="1" vector-effect="none"/></g></svg>