<svg width="104" height="27" viewBox="0 0 104 27" fill="none" xmlns="http://www.w3.org/2000/svg">
<mask id="mask0_4023_1430" style="mask-type:luminance" maskUnits="userSpaceOnUse" x="0" y="0" width="104" height="27">
<path d="M0.0566406 0H103.516V26.7162H0.0566406V0Z" fill="white"/>
</mask>
<g mask="url(#mask0_4023_1430)">
<path d="M37.3228 20.8832C36.4132 20.8832 35.59 20.7377 34.8531 20.4468C34.1334 20.1479 33.4913 19.6884 32.9761 19.1032C32.4623 18.5095 32.0676 17.7778 31.7918 16.908C31.5145 16.0242 31.3763 15.0023 31.377 13.8424C31.377 12.6824 31.5153 11.6542 31.7918 10.7577C32.0683 9.8479 32.4631 9.08983 32.9761 8.48352C33.4848 7.87654 34.1274 7.39603 34.8531 7.0798C35.59 6.76366 36.4129 6.60559 37.3217 6.60559C38.5605 6.60559 39.588 6.86904 40.4042 7.39595C41.2204 7.92285 41.872 8.72062 42.3591 9.78927L40.1273 10.9748C39.9294 10.3559 39.6069 9.86163 39.1599 9.49206C38.7113 9.10987 38.0986 8.91877 37.3217 8.91877C36.3476 8.91877 35.5707 9.24827 34.991 9.90727C34.4246 10.5663 34.1414 11.4891 34.1414 12.6757V14.8509C34.1414 16.0509 34.4246 16.9737 34.991 17.6194C35.5707 18.2524 36.3476 18.5689 37.3217 18.5689C38.1001 18.5689 38.7325 18.3578 39.2188 17.9355C39.7192 17.5147 40.0813 16.9941 40.3052 16.3737L42.418 17.6205C41.9183 18.6483 41.2534 19.452 40.4231 20.0316C39.5935 20.5993 38.5601 20.8839 37.3228 20.8832ZM48.187 20.8832C47.4494 20.8832 46.7844 20.7578 46.1921 20.5069C45.6175 20.2601 45.1048 19.8886 44.6909 19.4194C44.2689 18.9184 43.9469 18.3409 43.7424 17.7184C43.5185 17.0461 43.4066 16.2947 43.4066 15.4642C43.4066 14.6338 43.5185 13.8887 43.7424 13.229C43.9437 12.6113 44.2657 12.0399 44.6898 11.5481C45.1038 11.0792 45.6165 10.7082 46.191 10.4616C46.784 10.2108 47.4494 10.0854 48.187 10.0854C48.9246 10.0854 49.5896 10.2108 50.1819 10.4616C50.7742 10.7125 51.2746 11.0746 51.6831 11.5481C52.1057 12.0097 52.4281 12.57 52.6505 13.229C52.8752 13.8895 52.9875 14.6346 52.9875 15.4642C52.9875 16.2947 52.8755 17.0461 52.6517 17.7184C52.4468 18.3448 52.1177 18.9233 51.6842 19.4194C51.2754 19.8946 50.7608 20.2671 50.1819 20.5069C49.5889 20.757 48.9239 20.8832 48.187 20.8832ZM48.187 18.845C48.8587 18.845 49.385 18.6405 49.766 18.2316C50.1486 17.8234 50.3398 17.2234 50.3398 16.4316V14.5158C50.3398 13.7381 50.1489 13.1448 49.7671 12.7359C49.3854 12.3269 48.8587 12.1229 48.187 12.1236C47.5287 12.1236 47.0083 12.3277 46.6258 12.7359C46.2432 13.144 46.0524 13.7377 46.0531 14.5169V16.4338C46.0531 17.2249 46.244 17.8249 46.6258 18.2338C47.0083 18.642 47.5287 18.845 48.187 18.845ZM56.0888 8.8197C55.5617 8.8197 55.18 8.70096 54.9435 8.46348C54.7188 8.226 54.6065 7.92285 54.6065 7.55402V7.15884C54.6065 6.78926 54.7185 6.48611 54.9424 6.24937C55.1796 6.0119 55.5614 5.89316 56.0877 5.89316C56.6015 5.89316 56.9769 6.0119 57.2142 6.24937C57.4514 6.48685 57.57 6.79001 57.57 7.15884V7.55402C57.57 7.92359 57.4514 8.22675 57.2142 8.46348C56.9777 8.70096 56.6033 8.8197 56.0888 8.8197ZM54.8223 10.3225H57.3509V20.645H54.8223V10.3225ZM59.8818 20.645V10.3225H62.4094V12.0435H62.5084C62.7189 11.4891 63.048 11.0275 63.4958 10.6587C63.9569 10.2765 64.5893 10.0854 65.3929 10.0854C66.4596 10.0854 67.2758 10.4345 67.8415 11.1329C68.4078 11.832 68.691 12.8275 68.691 14.1195V20.645H66.1624V14.3767C66.1624 13.639 66.0308 13.0854 65.7676 12.7158C65.5037 12.3462 65.0693 12.1615 64.4644 12.1615C64.2004 12.1615 63.9436 12.2012 63.6937 12.2806C63.4565 12.3466 63.2393 12.452 63.0421 12.5967C62.8542 12.7321 62.6988 12.9078 62.5873 13.111C62.4627 13.3272 62.401 13.574 62.4094 13.8234V20.645H59.8818ZM74.479 20.8832C73.4915 20.8832 72.6619 20.7181 71.9903 20.3878C71.3126 20.0394 70.7087 19.5627 70.2122 18.9841L71.7535 17.4813C72.1345 17.9155 72.5496 18.2583 72.9989 18.5099C73.4585 18.76 73.9849 18.885 74.5779 18.885C75.1843 18.885 75.6191 18.7797 75.8823 18.5689C76.1588 18.3581 76.2971 18.068 76.2971 17.6984C76.2971 17.3956 76.1981 17.1581 76.0002 16.986C75.8156 16.8019 75.4931 16.6769 75.0327 16.6108L74.0052 16.4728C72.8858 16.3273 72.0296 16.0108 71.4365 15.5232C70.8583 15.0223 70.5692 14.2973 70.5692 13.3481C70.5692 12.8472 70.6611 12.3989 70.845 12.0034C71.0296 11.5952 71.2927 11.2524 71.6345 10.9748C71.977 10.6854 72.3854 10.4679 72.8599 10.3225C73.3838 10.1588 73.9302 10.0788 74.479 10.0854C74.9793 10.0854 75.4204 10.1251 75.8022 10.2045C76.1981 10.2705 76.5539 10.3759 76.8697 10.5206C77.1863 10.652 77.4758 10.8234 77.7382 11.0349C78.0014 11.2323 78.2582 11.4564 78.5088 11.7073L77.0287 13.19C76.7151 12.8655 76.3475 12.5981 75.9423 12.3997C75.5126 12.1864 75.0386 12.0777 74.559 12.0824C74.006 12.0824 73.6046 12.1815 73.3547 12.3796C73.2402 12.472 73.1486 12.5896 73.0869 12.7232C73.0252 12.8568 72.995 13.0028 72.9989 13.15C72.9989 13.4928 73.0975 13.7566 73.2947 13.9414C73.506 14.1129 73.8551 14.2383 74.3422 14.3177L75.3897 14.4557C77.6151 14.7719 78.7279 15.7871 78.7279 17.5014C78.7279 18.0023 78.6222 18.4635 78.411 18.885C78.2105 19.2996 77.9207 19.6646 77.5625 19.9537C77.1933 20.2431 76.7456 20.4735 76.2192 20.645C75.6546 20.8105 75.0684 20.8904 74.4801 20.8821M86.7253 18.924H86.6275C86.5344 19.1897 86.4081 19.4425 86.2516 19.6765C86.0956 19.9107 85.9021 20.1176 85.6789 20.2888C85.455 20.4735 85.1785 20.6186 84.8494 20.724C84.4912 20.8347 84.1178 20.8881 83.743 20.8821C82.6762 20.8821 81.8596 20.5329 81.2932 19.8346C80.7276 19.1355 80.4448 18.14 80.4448 16.8479V10.3225H82.9723V16.5919C82.9723 17.3028 83.1106 17.8498 83.3871 18.2327C83.6644 18.6016 84.1055 18.786 84.7104 18.786C84.9617 18.786 85.2056 18.7533 85.4421 18.688C85.6919 18.6212 85.9091 18.5221 86.0937 18.3908C86.2783 18.2461 86.4299 18.0746 86.5485 17.8765C86.6671 17.665 86.7264 17.4212 86.7264 17.1451V10.3225H89.254V20.645H86.7264L86.7253 18.924ZM94.3124 20.645C93.4436 20.645 92.8046 20.4275 92.3954 19.9927C91.9876 19.5578 91.7838 18.9448 91.7838 18.1537V6.01115H94.3124V18.6268H95.6746V20.6439L94.3124 20.645ZM100.317 20.645C99.4476 20.645 98.7827 20.4209 98.3223 19.9726C97.8745 19.5125 97.6507 18.8598 97.6507 18.0145V12.3396H96.1294V10.3225H96.919C97.3015 10.3225 97.5583 10.2371 97.6896 10.0665C97.8341 9.88093 97.9068 9.61005 97.9075 9.25384V7.49502H100.179V10.3225H102.292V12.3396H100.179V18.629H102.134V20.645H100.317ZM8.74908 0H26.7445V18.0145C26.7445 19.1574 26.5196 20.289 26.0827 21.3448C25.6458 22.4006 25.0054 23.3599 24.1981 24.168C23.3908 24.976 22.4324 25.6169 21.3777 26.0542C20.323 26.4914 19.1925 26.7164 18.0509 26.7162H0.0566406V8.7017C0.0566406 6.39387 0.972449 4.18055 2.6026 2.54867C4.23275 0.916784 6.44371 0 8.74908 0Z" fill="white"/>
<path d="M21.1451 10.5125L18.1082 11.9062L18.0526 11.9307L16.329 12.7099C16.329 12.7033 16.3276 12.6966 16.3246 12.6899C16.2229 12.2656 16.0268 11.8699 15.7508 11.5322L15.5918 11.1838L20.3811 8.98633C20.4812 9.14218 20.5743 9.30173 20.6603 9.465L21.1306 10.4914L21.1451 10.5125Z" fill="#020B10"/>
<path d="M21.4319 15.2312C21.2997 15.7948 21.1078 16.3426 20.8593 16.8654L15.2793 15.9114L15.3316 15.603C15.7385 15.2724 16.0477 14.836 16.2256 14.3418L21.4319 15.2312Z" fill="#020B10"/>
<path d="M11.3747 16.1192L7.50717 18.8609C7.1223 18.4403 6.78276 17.9802 6.49414 17.4884L10.3883 14.7266L11.3747 16.1192Z" fill="#020B10"/>
<path d="M11.5924 9.10019L10.8951 10.6586L6.76074 8.80409C7.09434 8.30984 7.47687 7.85789 7.90832 7.44824L11.5924 9.10019Z" fill="#020B10"/>
<path d="M19.503 14.9019C19.1938 16.1022 18.5319 17.1819 17.603 18.0014C16.6741 18.821 15.5209 19.3426 14.2926 19.4988C13.0643 19.6551 11.8175 19.4387 10.7133 18.8778C9.6092 18.3168 8.69864 17.4371 8.09945 16.3524L6.49707 17.4912C7.32006 18.8947 8.54416 20.0191 10.0115 20.7197C11.4789 21.4202 13.1222 21.6646 14.7297 21.4214C16.3371 21.1783 17.8349 20.4586 19.03 19.3553C20.225 18.252 21.0625 16.8157 21.4345 15.2314L19.503 14.9019Z" fill="#020B10"/>
<path d="M9.89282 8.33768C10.6752 7.77339 11.5784 7.39988 12.5305 7.2469C13.4826 7.09393 14.4573 7.16573 15.3767 7.45658C16.2962 7.74743 17.1351 8.24929 17.8265 8.92215C18.5179 9.59501 19.0428 10.4202 19.3592 11.3321L21.1429 10.5139L21.134 10.4894L20.6636 9.46199C19.9941 8.23364 19.0201 7.19844 17.8353 6.45595C16.6506 5.71347 15.2948 5.2887 13.8986 5.22251C12.5024 5.15631 11.1126 5.45092 9.86305 6.07798C8.61347 6.70505 7.54612 7.64348 6.76367 8.80299L8.58289 9.62006C8.95429 9.13026 9.39464 8.69835 9.89282 8.33879" fill="#020B10"/>
<path d="M7.44108 12.1746C7.50919 11.8232 7.60741 11.4783 7.73465 11.1438L5.94768 10.3423C5.24382 12.116 5.18244 14.0805 5.77421 15.8948L7.46999 14.6926C7.28778 13.8641 7.27793 13.007 7.44108 12.1746Z" fill="#020B10"/>
<path d="M19.2695 11.0923L18.0397 11.7113L17.9863 11.7391L16.2983 12.5862" fill="#020B10"/>
<path d="M10.3111 14.7714L9.22137 15.5428C8.94556 15.0022 8.77499 14.414 8.71875 13.8096L9.3259 13.3799L10.3111 14.7714Z" fill="#020B10"/>
<path d="M11.1284 10.7951L10.4311 12.3536L8.98779 11.7035C9.1835 11.1614 9.47706 10.6593 9.8518 10.2207L11.1284 10.7951Z" fill="#020B10"/>
<path d="M18.1463 14.6702C17.9499 15.3633 17.6009 16.0034 17.1248 16.5436C16.6487 17.0839 16.0577 17.5104 15.3952 17.7918C14.7328 18.0733 14.0157 18.2025 13.2968 18.17C12.5779 18.1374 11.8754 17.944 11.2411 17.6039C10.6067 17.2638 10.0565 16.7857 9.63098 16.2047C9.20549 15.6237 8.91551 14.9546 8.78236 14.2466C8.64921 13.5387 8.67627 12.8098 8.86157 12.1137C9.04686 11.4176 9.38567 10.7719 9.85307 10.2242L9.87531 10.1997C10.295 9.71524 10.807 9.31951 11.3814 9.03564C11.9557 8.75178 12.5809 8.58549 13.2202 8.54651C13.8596 8.50753 14.5003 8.59665 15.1048 8.80864C15.7093 9.02064 16.2655 9.35125 16.7408 9.78112C17.3768 10.3556 17.8482 11.0896 18.1063 11.9073L18.0507 11.9318L16.3282 12.7099C16.3282 12.7032 16.3267 12.6965 16.3238 12.6899C16.1634 12.0136 15.7652 11.4177 15.202 11.0111C14.6389 10.6045 13.9483 10.4144 13.2567 10.4755C12.5651 10.5366 11.9185 10.8448 11.4351 11.3439C10.9518 11.8429 10.664 12.4994 10.6244 13.1933C10.5847 13.8872 10.7959 14.5723 11.2192 15.1232C11.6425 15.6742 12.2498 16.0542 12.93 16.1938C13.6101 16.3335 14.3178 16.2234 14.9236 15.8838C15.5294 15.5441 15.9928 14.9976 16.2293 14.344L18.1463 14.6702Z" fill="#020B10"/>
</g>
</svg>
