<svg width="111" height="27" viewBox="0 0 111 27" fill="none" xmlns="http://www.w3.org/2000/svg">
<g clip-path="url(#clip0_4024_1463)">
<mask id="mask0_4024_1463" style="mask-type:luminance" maskUnits="userSpaceOnUse" x="0" y="0" width="111" height="27">
<path d="M110.772 0H0.568359V26.7162H110.772V0Z" fill="white"/>
</mask>
<g mask="url(#mask0_4024_1463)">
<path d="M10.827 0.668509C9.05701 2.07111 5.85106 3.17316 1.77683 3.84106L0.507812 4.04143L0.641394 7.94868C0.808371 12.3235 1.64325 15.2289 3.64697 18.6352C4.8492 20.7057 9.52454 25.5814 11.0273 26.3495C11.8622 26.7837 12.096 26.7837 13.031 26.2827C14.1999 25.6482 16.6043 23.5777 16.6043 23.2104C16.6043 22.8764 17.506 22.0415 17.8734 22.0415C18.0403 22.0415 18.3743 21.6742 18.6081 21.2067C18.8418 20.7391 19.1758 20.3718 19.3428 20.3718C19.4763 20.3718 19.6099 20.138 19.6099 19.8708C19.6099 19.6037 19.7435 19.3699 19.9105 19.3699C20.2444 19.3699 22.5153 14.8949 22.7157 13.8597C22.7825 13.4923 22.9495 12.958 23.0496 12.6909C23.9179 10.42 24.2519 4.44218 23.5506 3.74088C23.3168 3.50711 22.5153 3.34013 21.7806 3.34013C20.1109 3.34013 17.2389 2.40506 14.6674 1.00246C12.4633 -0.166374 11.9624 -0.233164 10.827 0.668509ZM14.7676 2.93939C16.0366 3.5739 19.5097 4.54236 21.2797 4.74273C22.1146 4.84292 22.1146 4.84292 22.0812 8.41622C22.0478 10.4534 21.8808 12.4571 21.6136 13.0916C21.1127 14.394 19.7435 17.266 19.1758 18.1677C18.0069 20.0712 14.3335 23.8115 12.8975 24.5796C11.929 25.0805 11.8288 25.0471 10.2592 23.8783C5.31674 20.2716 1.94381 13.4923 1.91042 7.31417C1.91042 5.24366 2.11079 5.0099 4.01432 5.0099C5.5505 4.9765 9.25738 3.60729 10.9605 2.40506C12.1962 1.57018 12.4967 1.47 12.9309 1.83734C13.198 2.07111 14.0329 2.57204 14.7676 2.93939Z" fill="white"/>
<path d="M11.4279 3.10647C10.3927 4.14173 7.65424 5.27717 5.18299 5.67791L2.91211 6.07865V8.14916C2.91211 10.3867 3.64681 13.8598 4.4149 15.3292C4.98262 16.4646 6.41862 17.1325 7.9548 16.9656C8.92326 16.8988 9.12363 16.7318 9.19043 15.9637C9.29061 15.1622 9.09024 14.9619 7.65424 14.2272C5.8509 13.2921 4.58187 11.9563 4.58187 10.9544C4.58187 9.88572 5.48355 8.51651 6.48541 8.04898C6.98634 7.81521 8.35554 7.51465 9.52438 7.41447C11.4613 7.28089 11.5949 7.31428 11.5949 7.94879C11.5949 9.45158 11.2943 9.68535 9.25722 9.68535C7.78782 9.68535 7.28689 9.81893 7.11992 10.2197C6.75257 11.1548 6.88615 11.3218 8.92326 12.357C11.1274 13.4591 11.5949 14.0936 11.5949 15.8301C11.5949 17.4331 10.4594 18.6352 8.48912 19.1362L6.88615 19.537L7.55406 20.4387C7.9548 20.9396 9.02345 21.8747 9.92512 22.5426C12.0624 24.1122 12.6301 23.9785 15.3352 21.2736C18.4409 18.2345 18.5745 18.0008 20.6116 13.1919C20.8454 12.6242 21.1125 10.7207 21.2127 8.91725L21.3797 5.67791H20.3445C19.042 5.67791 14.9344 4.27531 13.6988 3.44043C12.196 2.40517 12.1292 2.37178 11.4279 3.10647ZM17.2721 7.68163C19.2424 8.24935 19.7099 8.81707 19.8769 10.754C19.9771 12.1566 19.8769 12.691 19.376 13.2253C18.5745 14.1604 16.8379 15.0286 15.7693 15.0286C14.9678 15.0286 14.9344 15.0954 14.9344 17.0324V19.0361H13.7656H12.5967V15.8635V12.691H14.7674C16.8046 12.691 16.9715 12.6242 17.3389 11.8227C18.0068 10.3867 17.3723 9.85232 14.8008 9.75214L12.5967 9.65195V8.51651V7.34767H14.3667C15.3018 7.34767 16.6376 7.51465 17.2721 7.68163Z" fill="white"/>
<path d="M29.0612 6.71363C27.4582 7.18117 26.2894 8.78414 26.2894 10.4873C26.2894 12.3574 27.2245 13.5596 29.5288 14.5615C31.4991 15.4632 31.8998 16.4316 30.4972 17.0661C29.8627 17.3667 29.3952 17.2999 28.1929 16.7656L26.6568 16.0977L26.3228 17.0995C25.7551 18.6691 25.8887 19.2368 26.7903 19.6376C30.5306 21.3407 34.6048 19.6042 34.6382 16.2646L34.6716 14.862L35.1392 16.1979C36.4416 19.9047 41.0167 21.4075 44.3563 19.2034C47.8962 16.8992 47.8962 9.786 44.3897 7.44833C40.0817 4.60973 34.6382 7.98266 34.6382 13.5596V14.4613L33.9369 13.5596C33.5362 13.0587 32.4007 12.2906 31.4323 11.8565C30.1299 11.2887 29.6289 10.888 29.6289 10.4205C29.6289 9.51884 30.7978 9.28507 32.2338 9.88619C32.8683 10.1199 33.436 10.3537 33.4694 10.3537C33.6364 10.3537 34.3043 8.28321 34.3043 7.81568C34.3043 6.84722 30.9647 6.11252 29.0612 6.71363ZM41.7848 9.68582C44.4231 10.6876 44.1559 16.4984 41.4509 17.1663C39.5473 17.6673 37.7106 14.9956 38.1781 12.3908C38.4119 11.2554 39.9147 9.35186 40.616 9.35186C40.783 9.35186 41.3173 9.48544 41.7848 9.68582Z" fill="white"/>
<path d="M47.6621 13.525V20.371H53.5063H59.3505V13.4916V6.64551L57.7809 6.74569L56.1779 6.84588L56.0777 12.089L55.9775 17.3654H53.5063H51.0016V12.0222V6.6789H49.3319H47.6621V13.525Z" fill="white"/>
<path d="M61.2925 6.88007C60.7582 7.04705 60.6914 7.64816 60.6914 13.5257V20.0044L62.4948 20.2048C66.3352 20.7057 69.5412 19.5035 70.9772 17.099C71.7119 15.7966 71.8788 15.1287 71.8788 13.1584C71.8788 11.1547 71.7453 10.5869 70.9772 9.45151C69.7081 7.54797 68.1386 6.88007 64.6988 6.77988C63.1293 6.74649 61.5931 6.81328 61.2925 6.88007ZM67.0031 10.1862C67.9382 10.6537 68.7063 12.1231 68.7063 13.4255C68.7063 15.3625 66.6692 17.3662 64.7322 17.3662C64.0643 17.3662 64.0309 17.1992 64.0309 13.5257V9.68527H65.0328C65.6005 9.68527 66.5022 9.91904 67.0031 10.1862Z" fill="white"/>
<path d="M73.7129 13.3582C73.7129 19.0688 73.7797 20.0373 74.2138 20.0373C74.6146 20.0373 74.7147 19.503 74.7147 17.3657V14.6941H77.1526C78.9226 14.6941 79.8242 14.5271 80.5923 14.0595C82.5292 12.8573 82.8966 9.58459 81.2602 8.04841C80.225 7.07994 78.6888 6.6792 75.9838 6.6792H73.7129V13.3582ZM80.5589 8.51594C81.7946 9.75157 81.7946 11.7219 80.5255 13.0243C79.8576 13.7256 79.3567 13.8592 77.2194 13.9594L74.7147 14.0929V10.887V7.68106H77.2194C79.4569 7.68106 79.8576 7.78124 80.5589 8.51594Z" fill="white"/>
<path d="M108.312 7.21381C108.011 7.51437 107.777 8.28246 107.777 9.05055C107.777 10.1192 107.677 10.353 107.109 10.353C106.742 10.353 106.441 10.4865 106.441 10.6869C106.441 10.8539 106.742 11.0209 107.109 11.0209C107.744 11.0209 107.777 11.2546 107.777 15.5292C107.777 18.301 107.911 20.0376 108.111 20.0376C108.312 20.0376 108.445 18.301 108.445 15.5292V11.0209H109.614C110.248 11.0209 110.783 10.8539 110.783 10.6869C110.783 10.4865 110.248 10.353 109.614 10.353C108.512 10.353 108.445 10.2862 108.445 9.25093C108.445 7.94851 108.946 7.34739 110.015 7.34739C110.449 7.34739 110.783 7.18042 110.783 7.01344C110.783 6.47912 108.879 6.6127 108.312 7.21381Z" fill="white"/>
<path d="M83.7285 15.1952C83.7285 19.2694 83.7953 20.0375 84.2294 20.0375C84.6302 20.0375 84.7304 19.403 84.7304 16.3974C84.7304 13.1915 84.8306 12.6905 85.4317 11.8557C85.9994 11.1543 86.3667 10.9874 87.1014 11.0876C87.7693 11.1877 88.0699 11.0876 88.0699 10.787C88.0699 10.1525 86.0662 10.2193 85.3315 10.9206C84.7638 11.4215 84.7304 11.4215 84.7304 10.9206C84.7304 10.5866 84.4966 10.3529 84.2294 10.3529C83.7953 10.3529 83.7285 11.121 83.7285 15.1952Z" fill="white"/>
<path d="M90.1408 10.8212C88.7382 11.5893 88.0703 13.0253 88.0703 15.2294C88.0703 17.8343 88.972 19.337 90.9757 20.005C93.8811 21.0402 96.4191 18.9029 96.4191 15.4632C96.4191 13.2591 95.7512 11.6895 94.4488 10.9214C93.3134 10.2535 91.2429 10.1867 90.1408 10.8212ZM94.0147 11.5559C97.087 13.6932 95.8848 19.3704 92.3115 19.3704C90.6084 19.3704 89.7735 18.8695 89.2058 17.5337C87.9033 14.4279 89.5063 11.0216 92.2447 11.0216C92.8124 11.0216 93.6139 11.2554 94.0147 11.5559Z" fill="white"/>
<path d="M99.3945 10.8539C97.3908 11.9225 96.7229 16.2305 98.1923 18.4012C99.2609 20.0042 101.231 20.6721 102.968 20.0042C104.838 19.3029 105.773 17.7333 105.773 15.2954C105.773 12.9578 105.138 11.5552 103.769 10.8539C102.567 10.2193 100.53 10.2193 99.3945 10.8539ZM103.369 11.5552C105.005 12.6906 105.573 15.2954 104.638 17.5329C104.07 18.9021 103.235 19.3697 101.432 19.3697C99.0939 19.3697 97.6913 17.0988 98.2591 14.1266C98.7266 11.5886 101.465 10.2193 103.369 11.5552Z" fill="white"/>
</g>
</g>
<defs>
<clipPath id="clip0_4024_1463">
<rect width="111" height="27" fill="white"/>
</clipPath>
</defs>
</svg>
