<svg width="174" height="32" viewBox="0 0 174 34" fill="none" xmlns="http://www.w3.org/2000/svg">
  <path fill-rule="evenodd" clip-rule="evenodd" d="M16.2048 1.02739C16.0593 0.990871 15.8839 0.990871 15.7384 1.02739L6.20907 3.93987L6.20411 3.94153C5.75777 4.09089 5.53922 4.54125 5.64781 4.9773L5.6503 4.9873L5.65381 4.997C5.79951 5.39925 6.24264 5.66881 6.69724 5.51832L15.9855 2.68408L25.473 5.60383C25.9319 5.75587 26.3753 5.48024 26.5185 5.04898C26.6711 4.58932 26.3979 4.14292 25.9664 3.99851L16.2144 1.02979L16.2048 1.02739ZM1.7663 6.02702C1.72232 5.68815 1.9046 5.35609 2.1862 5.18647L2.19594 5.18061L2.20628 5.17589C2.30031 5.13298 2.3985 5.10801 2.49663 5.10005C2.57767 5.08859 2.66217 5.08924 2.74808 5.10361C3.09447 5.16157 3.35357 5.42285 3.41869 5.74725L8.87015 16.4265H23.3173C23.3467 16.4265 23.3757 16.4281 23.4044 16.4312L28.5501 5.76442C28.5902 5.54516 28.7207 5.35393 28.9142 5.23959C29.1491 5.07694 29.4648 5.05174 29.7369 5.17589C30.009 5.30008 30.1639 5.54801 30.1927 5.81541L30.361 6.80129C30.3995 6.97382 30.5637 8.12327 30.5637 9.86449C30.5637 11.5892 30.392 13.8592 29.7623 16.4164C29.1611 18.8307 28.0726 21.7361 26.0952 24.5843C24.1178 27.4325 21.2533 30.2498 17.1327 32.4621L17.1314 32.4628L16.369 32.888L16.3679 32.8887C16.1083 33.0371 15.8348 33.0371 15.5752 32.8887L15.5741 32.888L14.8117 32.4628L14.8104 32.4621C10.6898 30.2498 7.82531 27.4325 5.84794 24.5843C3.87117 21.737 2.78205 18.8319 2.23713 16.3858C1.60788 13.8293 1.43622 11.5315 1.43622 9.83596C1.43622 8.09476 1.60044 6.94532 1.63895 6.77277L1.7663 6.02702ZM9.71424 18.0801H22.5282L15.9894 30.373L9.71424 18.0801ZM3.10873 8.75769C3.09431 9.0801 3.08487 9.4414 3.08487 9.83596C3.08487 11.4223 3.22601 13.602 3.8178 15.9784C4.38152 18.2704 5.396 20.9577 7.22672 23.6157C8.78816 25.8583 10.9445 28.1024 13.9602 30.014L3.10873 8.75769ZM18.0543 29.9823C21.0324 28.083 23.1931 25.8684 24.7446 23.616C26.5752 20.9583 27.5898 18.2429 28.1537 15.9784C28.7455 13.602 28.8867 11.4223 28.8867 9.83596C28.8867 9.48385 28.8791 9.15823 28.8673 8.86309L24.8804 17.1275V17.1602L18.0543 29.9823Z" fill="white"/>
  <path fill-rule="evenodd" clip-rule="evenodd" d="M15.8213 1.60537L6.47901 4.46069L6.47781 4.46109C6.19767 4.55483 6.05346 4.83404 6.12282 5.12238C6.22026 5.38393 6.5016 5.54084 6.77587 5.45004L6.77916 5.44896L15.9862 2.63953L25.3883 5.53301L25.3913 5.53401C25.6649 5.62466 25.9483 5.46867 26.0454 5.17611C26.1368 4.90081 25.9819 4.61672 25.693 4.51819L16.1316 1.60752L16.1293 1.60694C16.0357 1.58344 15.9161 1.58292 15.8213 1.60537ZM16.2727 1.0357L16.2892 1.03984L25.8726 3.95723L25.8764 3.95851C26.4325 4.14457 26.8122 4.7357 26.6043 5.3617C26.4207 5.91484 25.8353 6.29959 25.2093 6.09414L15.9854 3.25552L6.95743 6.01033C6.34218 6.21184 5.75721 5.84245 5.56731 5.31817L5.55867 5.29431L5.55254 5.2697C5.41161 4.70376 5.69641 4.10151 6.29091 3.90257L6.29945 3.89971L15.6643 1.03751L15.6715 1.0357C15.8614 0.988041 16.0828 0.98804 16.2727 1.0357ZM2.7126 5.02625C2.81921 5.01206 2.92946 5.0135 3.04052 5.03209C3.48719 5.10682 3.8282 5.43672 3.92946 5.85369L9.18164 16.1426H23.0854L28.038 5.87614C28.1001 5.59972 28.27 5.35758 28.5176 5.2079C28.8364 4.99189 29.2525 4.96414 29.6063 5.12557C29.9736 5.29317 30.1822 5.62783 30.2232 5.98003L30.3859 6.93296C30.4325 7.15296 30.5902 8.29723 30.5902 9.99579C30.5902 11.708 30.4197 13.9604 29.795 16.4976L29.7948 16.4983C29.198 18.8948 28.1169 21.7814 26.1513 24.6127C24.1855 27.4442 21.3396 30.2419 17.2518 32.4367L17.2511 32.437L17.2498 32.4378L16.5087 32.8511L16.5076 32.8517C16.1622 33.0492 15.7822 33.0494 15.4369 32.8519L15.4356 32.8512L14.6942 32.4377L14.693 32.437L14.6923 32.4366C10.6045 30.2419 7.75862 27.4442 5.79284 24.6127C3.82875 21.7836 2.74595 18.8969 2.20366 16.4643C1.57994 13.929 1.40973 11.6506 1.40973 9.96779C1.40973 8.2693 1.56738 7.12506 1.61403 6.90499L1.7311 6.21943C1.69356 5.77734 1.93457 5.36477 2.28844 5.15162L2.3124 5.13718L2.33785 5.12557C2.45872 5.07042 2.58541 5.03756 2.7126 5.02625ZM2.94333 5.61297C2.88876 5.60384 2.83611 5.60357 2.78634 5.61061L2.77766 5.61184L2.76893 5.61254C2.70815 5.61748 2.64689 5.63266 2.58751 5.65905C2.40406 5.77211 2.29381 5.98738 2.32024 6.19105L2.32594 6.23492L2.19224 7.01786L2.19062 7.02512C2.15928 7.16552 1.99869 8.27022 1.99869 9.96779C1.99869 11.6131 2.16533 13.8444 2.77632 16.3267L2.7771 16.3298L2.77781 16.333C3.30554 18.702 4.3608 21.5172 6.27664 24.2768C8.19273 27.0367 10.9702 29.7698 14.9716 31.9181L14.977 31.921L15.7282 32.3401L15.7292 32.3406C15.8934 32.4346 16.0507 32.4346 16.2149 32.3406L16.2158 32.3402L16.2188 32.3384L16.9713 31.9187L16.9726 31.9181C20.9739 29.7698 23.7514 27.0367 25.6675 24.2768C27.5839 21.5164 28.6397 18.6993 29.2233 16.356C29.8345 13.8732 30.0012 11.6693 30.0012 9.99579C30.0012 8.2982 29.8406 7.1935 29.8093 7.05312L29.8077 7.04586L29.6396 6.06178L29.6387 6.05268C29.6205 5.88347 29.5254 5.73604 29.3618 5.66138C29.1847 5.58056 28.9855 5.60028 28.8441 5.69813L28.8354 5.70416L28.8263 5.70954C28.7115 5.77735 28.6332 5.89094 28.6088 6.02417L28.6016 6.0633L23.443 16.7567L23.2365 16.7344C23.2188 16.7325 23.2009 16.7315 23.1826 16.7315H8.82103L3.36947 6.05207L3.36148 6.01229C3.32135 5.81242 3.16158 5.64949 2.94333 5.61297ZM3.10154 7.78296L14.7497 30.5998L13.8401 30.0232C10.8443 28.1242 8.6998 25.8932 7.14648 23.6622L7.14563 23.661C5.32472 21.0172 4.31621 18.3451 3.75607 16.0678C3.16795 13.7058 3.02804 11.5414 3.02804 9.96779C3.02804 9.5758 3.03742 9.21675 3.05176 8.89621L3.10154 7.78296ZM28.8774 7.82329L28.9247 9.001C28.9365 9.29439 28.944 9.61797 28.944 9.96779C28.944 11.5415 28.804 13.7062 28.2158 16.0683C27.6557 18.3174 26.6474 21.0172 24.8261 23.6613C23.2814 25.904 21.1321 28.1057 18.1749 29.9917L17.2299 30.5944L24.4225 17.0838V17.0579L28.8774 7.82329ZM3.61728 10.0885C3.62439 11.6178 3.769 13.6824 4.32771 15.926L4.32792 15.9268C4.87445 18.149 5.85745 20.7522 7.63027 23.3263C8.9765 25.2597 10.7798 27.1953 13.2231 28.9048L3.61728 10.0885ZM25.0115 17.1925V17.2308L18.8289 28.8441C21.2235 27.1557 23.0136 25.2545 24.3411 23.3272C26.1138 20.7536 27.0973 18.1226 27.6443 15.926C28.1818 13.7676 28.336 11.7749 28.3533 10.2651L25.0115 17.1925ZM9.34894 17.7657H22.8983L15.9842 30.764L9.34894 17.7657ZM10.3108 18.3547L15.995 29.4897L21.9179 18.3547H10.3108Z" fill="white"/>
  <path d="M16.201 1.32132L16.2727 1.0357M16.2727 1.0357C16.0828 0.98804 15.8614 0.988041 15.6715 1.0357L15.6643 1.03751L6.29945 3.89971L6.29091 3.90257C5.69641 4.10151 5.41161 4.70376 5.55254 5.2697L5.55867 5.29431L5.56731 5.31817C5.75721 5.84245 6.34218 6.21184 6.95743 6.01033L15.9854 3.25552L25.2093 6.09414C25.8353 6.29959 26.4207 5.91484 26.6043 5.3617C26.8122 4.7357 26.4325 4.14457 25.8764 3.95851L25.8726 3.95723L16.2892 1.03984L16.2727 1.0357ZM2.33785 5.12557L2.4601 5.39347M2.33785 5.12557C2.45872 5.07042 2.58541 5.03756 2.7126 5.02625C2.81921 5.01206 2.92946 5.0135 3.04052 5.03209C3.48719 5.10682 3.8282 5.43672 3.92946 5.85369L9.18164 16.1426H23.0854L28.038 5.87614C28.1001 5.59972 28.27 5.35758 28.5176 5.2079C28.8364 4.99189 29.2525 4.96414 29.6063 5.12557C29.9736 5.29317 30.1822 5.62783 30.2232 5.98003L30.3859 6.93296C30.4325 7.15296 30.5902 8.29723 30.5902 9.99579C30.5902 11.708 30.4197 13.9604 29.795 16.4976L29.7948 16.4983C29.198 18.8948 28.1169 21.7814 26.1513 24.6127C24.1855 27.4442 21.3396 30.2419 17.2518 32.4367L17.2511 32.437L17.2498 32.4378L16.5087 32.8511L16.5076 32.8517C16.1622 33.0492 15.7822 33.0494 15.4369 32.8519L15.4356 32.8512L14.6942 32.4377L14.693 32.437L14.6923 32.4366C10.6045 30.2419 7.75862 27.4442 5.79284 24.6127C3.82875 21.7836 2.74595 18.8969 2.20366 16.4643C1.57994 13.929 1.40973 11.6506 1.40973 9.96779C1.40973 8.2693 1.56738 7.12506 1.61403 6.90499L1.7311 6.21943C1.69356 5.77734 1.93457 5.36477 2.28844 5.15162L2.3124 5.13718L2.33785 5.12557ZM2.46124 5.39598L2.50054 5.4821M6.47901 4.46069L15.8213 1.60537C15.9161 1.58292 16.0357 1.58344 16.1293 1.60694L16.1316 1.60752L25.693 4.51819C25.9819 4.61672 26.1368 4.90081 26.0454 5.17611C25.9483 5.46867 25.6649 5.62466 25.3913 5.53401L25.3883 5.53301L15.9862 2.63953L6.77916 5.44896L6.77587 5.45004C6.5016 5.54084 6.22026 5.38393 6.12282 5.12238C6.05346 4.83404 6.19767 4.55483 6.47781 4.46109L6.47901 4.46069ZM2.78634 5.61061C2.83611 5.60357 2.88876 5.60384 2.94333 5.61297C3.16158 5.64949 3.32135 5.81242 3.36148 6.01229L3.36947 6.05207L8.82103 16.7315H23.1826C23.2009 16.7315 23.2188 16.7325 23.2365 16.7344L23.443 16.7567L28.6016 6.0633L28.6088 6.02417C28.6332 5.89094 28.7115 5.77735 28.8263 5.70954L28.8354 5.70416L28.8441 5.69813C28.9855 5.60028 29.1847 5.58056 29.3618 5.66138C29.5254 5.73604 29.6205 5.88347 29.6387 6.05268L29.6396 6.06178L29.8077 7.04586L29.8093 7.05312C29.8406 7.1935 30.0012 8.2982 30.0012 9.99579C30.0012 11.6693 29.8345 13.8732 29.2233 16.356C28.6397 18.6993 27.5839 21.5164 25.6675 24.2768C23.7514 27.0367 20.9739 29.7698 16.9726 31.9181L16.9713 31.9187L16.2188 32.3384L16.2158 32.3402L16.2149 32.3406C16.0507 32.4346 15.8934 32.4346 15.7292 32.3406L15.7282 32.3401L14.977 31.921L14.9716 31.9181C10.9702 29.7698 8.19273 27.0367 6.27664 24.2768C4.3608 21.5172 3.30554 18.702 2.77781 16.333L2.7771 16.3298L2.77632 16.3267C2.16533 13.8444 1.99869 11.6131 1.99869 9.96779C1.99869 8.27022 2.15928 7.16552 2.19062 7.02512L2.19224 7.01786L2.32594 6.23492L2.32024 6.19105C2.29381 5.98738 2.40406 5.77211 2.58751 5.65905C2.64689 5.63266 2.70815 5.61748 2.76893 5.61254L2.77766 5.61184L2.78634 5.61061ZM3.10154 7.78296L3.05176 8.89621C3.03742 9.21675 3.02804 9.5758 3.02804 9.96779C3.02804 11.5414 3.16795 13.7058 3.75607 16.0678C4.31621 18.3451 5.32472 21.0172 7.14563 23.661L7.14648 23.6622C8.6998 25.8932 10.8443 28.1242 13.8401 30.0232L14.7497 30.5998L3.10154 7.78296ZM28.9247 9.001L28.8774 7.82329L24.4225 17.0579V17.0838L17.2299 30.5944L18.1749 29.9917C21.1321 28.1057 23.2814 25.904 24.8261 23.6613C26.6474 21.0172 27.6557 18.3174 28.2158 16.0683C28.804 13.7062 28.944 11.5415 28.944 9.96779C28.944 9.61797 28.9365 9.29439 28.9247 9.001ZM4.32771 15.926C3.769 13.6824 3.62439 11.6178 3.61728 10.0885L13.2231 28.9048C10.7798 27.1953 8.9765 25.2597 7.63027 23.3263C5.85745 20.7522 4.87445 18.149 4.32792 15.9268L4.32771 15.926ZM25.0115 17.2308V17.1925L28.3533 10.2651C28.336 11.7749 28.1818 13.7676 27.6443 15.926C27.0973 18.1226 26.1138 20.7536 24.3411 23.3272C23.0136 25.2545 21.2235 27.1557 18.8289 28.8441L25.0115 17.2308ZM9.34894 17.7657H22.8983L15.9842 30.764L9.34894 17.7657ZM15.995 29.4897L10.3108 18.3547H21.9179L15.995 29.4897Z" stroke="white" stroke-width="0.392639" stroke-miterlimit="10"/>
  <path d="M59.025 10.8184H45.8606C45.6289 10.8184 45.4359 10.896 45.2429 11.0897C45.0885 11.2448 44.9727 11.4773 44.9727 11.7098V22.2903C44.9727 22.5229 45.0499 22.7167 45.2429 22.9104C45.3973 23.0655 45.6289 23.1817 45.8606 23.1817H59.025V24.9645H45.8606C45.1271 24.9645 44.5094 24.6932 44.0075 24.1894C43.5056 23.6856 43.2354 23.0655 43.2354 22.3291V11.6711C43.2354 10.9347 43.5056 10.3146 44.0075 9.81077C44.5094 9.30694 45.1271 9.03564 45.8606 9.03564H59.025V10.8184Z" fill="white"/>
  <path d="M58.4562 24.5615H58.6221V24.3956V23.7505V23.5846H58.4562H45.8607C45.5029 23.5846 45.173 23.411 44.9575 23.1947C44.6941 22.9303 44.5698 22.6361 44.5698 22.2902V11.7097C44.5698 11.3521 44.742 11.0216 44.9575 10.8053C45.2209 10.5408 45.5147 10.4154 45.8607 10.4154H58.4562H58.6221V10.2495V9.60444V9.43851H58.4562H45.8607C45.2384 9.43851 44.7223 9.66423 44.2931 10.0951C43.8639 10.5259 43.6385 11.0448 43.6385 11.671V22.329C43.6385 22.9552 43.8639 23.4741 44.2931 23.9049C44.7223 24.3358 45.2384 24.5615 45.8607 24.5615H58.4562ZM43.7221 9.5263C44.2967 8.94943 45.016 8.63259 45.8607 8.63259H59.4281V11.2213H45.8607C45.8172 11.2213 45.7606 11.2241 45.6969 11.2514C45.6362 11.2773 45.5827 11.3196 45.5285 11.374C45.4784 11.4243 45.4415 11.4824 45.4168 11.5373C45.3931 11.5901 45.3757 11.6513 45.3757 11.7097V22.2902C45.3757 22.3353 45.3788 22.3924 45.406 22.4564C45.432 22.5175 45.4742 22.5714 45.5285 22.626C45.5787 22.6763 45.6363 22.7132 45.6907 22.7378C45.7427 22.7613 45.8031 22.7787 45.8607 22.7787H59.4281V25.3674H45.8607C45.016 25.3674 44.2967 25.0506 43.7221 24.4737C43.1475 23.8969 42.8326 23.1755 42.8326 22.329V11.671C42.8326 10.8245 43.1475 10.1031 43.7221 9.5263Z" fill="white" stroke="white" stroke-width="0.331852" stroke-miterlimit="10"/>
  <path d="M83.7325 9.03564V10.8184H71.07V16.0893H81.2618V17.9109H71.07V23.1817H83.7325V24.9645H69.2941V9.0744H83.7325V9.03564Z" fill="white"/>
  <path d="M71.6388 11.2212H71.4729V11.3871V15.5202V15.6862H71.6388H81.6647V18.3136H71.6388H71.4729V18.4796V22.6127V22.7786H71.6388H84.1355V25.3673H68.8911V8.67125H84.1355V9.03546V11.2212H71.6388ZM83.3296 9.6431V9.47718H83.1636H69.863H69.6971V9.6431V24.3955V24.5614H69.863H83.1636H83.3296V24.3955V23.7504V23.5845H83.1636H70.667V17.5077H80.6929H80.8588V17.3418V16.658V16.4921H80.6929H70.667V10.4153H83.1636H83.3296V10.2494V9.6431Z" fill="white" stroke="white" stroke-width="0.331852" stroke-miterlimit="10"/>
  <path d="M109.83 11.6711V16.3219C109.83 17.0582 109.56 17.6783 109.058 18.1822C108.556 18.686 107.938 18.9573 107.205 18.9573H104.773L109.753 24.887H107.398L102.418 18.996H96.6268C96.511 18.996 96.2021 18.9573 95.7775 18.9185V24.9258H94.0016V9.03564H107.205C107.938 9.03564 108.556 9.30694 109.058 9.81077C109.56 10.3146 109.83 10.9347 109.83 11.6711ZM96.6268 17.1745H107.166C107.398 17.1745 107.591 17.097 107.745 16.942C107.9 16.7869 107.977 16.5931 107.977 16.3606V11.7098C107.977 11.4773 107.9 11.2835 107.745 11.0897C107.591 10.9347 107.398 10.8184 107.166 10.8184H96.6268C96.3952 10.8184 96.2021 10.896 96.0091 11.0897C95.8547 11.2448 95.7389 11.4773 95.7389 11.7098V16.3606C95.7389 16.5931 95.8161 16.7869 96.0091 16.942C96.1635 17.097 96.3952 17.1745 96.6268 17.1745Z" fill="white"/>
  <path d="M105.866 19.6328L110.617 25.2899H107.211L102.28 19.4577L102.231 19.3989H102.154H96.6267C96.5625 19.3989 96.4679 19.3912 96.3622 19.381L96.1804 19.3635V19.5462V25.3286H93.5986V8.63259H107.205C108.049 8.63259 108.769 8.94942 109.343 9.5263C109.918 10.1031 110.233 10.8245 110.233 11.671V16.3218C110.233 17.1682 109.918 17.8896 109.343 18.4664C108.769 19.0433 108.049 19.3602 107.205 19.3602H105.993H105.637L105.866 19.6328ZM94.4045 24.3568V24.5227H94.5705H95.2085H95.3744V24.3568V18.477L95.814 18.5171C95.9786 18.5322 96.1272 18.5473 96.2517 18.56L96.3581 18.5708C96.4303 18.578 96.4898 18.5837 96.5377 18.5877C96.5615 18.5896 96.581 18.591 96.5968 18.5919L96.6059 18.4292L96.5968 18.5919L96.6163 18.5928L96.6163 18.5928L96.6222 18.5929L96.6242 18.593L96.6251 18.593L96.6254 18.593L96.6256 18.593H96.6257L96.6257 18.593H96.6257H96.6257L96.6268 18.4271L96.6257 18.593H96.6268H102.605L107.535 24.4252L107.585 24.484H107.662H108.532H108.888L108.659 24.2113L103.908 18.5542H107.205C107.827 18.5542 108.343 18.3285 108.772 17.8977C109.201 17.4668 109.427 16.948 109.427 16.3218V11.671C109.427 11.0448 109.201 10.5259 108.772 10.0951C108.343 9.66423 107.827 9.43851 107.205 9.43851H94.5705H94.4045V9.60444V24.3568ZM95.7436 17.2459L95.7439 17.2456L95.7358 17.2388C95.4517 17.0007 95.3358 16.6921 95.3358 16.3605V11.7097C95.3358 11.3521 95.508 11.0216 95.7235 10.8053C95.987 10.5408 96.2808 10.4154 96.6267 10.4154H107.166C107.543 10.4154 107.832 10.6061 108.031 10.8053L108.144 10.6922L108.031 10.8053L108.046 10.8211L108.06 10.8385L108.19 10.7351L108.06 10.8385C108.262 11.0916 108.38 11.3717 108.38 11.7097V16.3605C108.38 16.6923 108.265 16.9906 108.031 17.2262C107.796 17.4619 107.498 17.5774 107.166 17.5774H96.6267C96.3229 17.5774 95.9888 17.4796 95.7436 17.2459ZM96.2614 16.6277L96.3639 16.5L96.2614 16.6277L96.2788 16.6417L96.2945 16.6575C96.3557 16.7188 96.4743 16.7714 96.6267 16.7714H107.166C107.226 16.7714 107.282 16.7635 107.335 16.7422C107.389 16.7204 107.428 16.6889 107.46 16.6575C107.491 16.6259 107.523 16.5859 107.544 16.5314C107.566 16.4782 107.574 16.4213 107.574 16.3605V11.7097C107.574 11.5951 107.544 11.4938 107.453 11.371L107.444 11.3584L107.432 11.3477C107.331 11.2548 107.243 11.2213 107.166 11.2213H96.6267C96.5832 11.2213 96.5266 11.2241 96.4629 11.2514C96.4023 11.2773 96.3487 11.3196 96.2945 11.374C96.2444 11.4243 96.2075 11.4824 96.1829 11.5373C96.1592 11.5901 96.1418 11.6513 96.1418 11.7097V16.3605C96.1418 16.432 96.1535 16.4803 96.1693 16.5154L96.3095 16.4525L96.1693 16.5154C96.1843 16.549 96.2101 16.5865 96.2614 16.6277Z" fill="white" stroke="white" stroke-width="0.331852" stroke-miterlimit="10"/>
  <path d="M119.288 9.03564H135.116V10.8184H128.09V24.9258H126.314V10.8184H119.288V9.03564Z" fill="white"/>
  <path d="M128.659 11.2213H128.493V11.3872V25.3286H125.911V11.3872V11.2213H125.745H118.885V8.63259H135.519V11.2213H128.659ZM119.691 10.2495V10.4154H119.857H126.717V24.3568V24.5227H126.883H127.521H127.687V24.3568V10.4154H134.547H134.713V10.2495V9.60444V9.43851H134.547H119.857H119.691V9.60444V10.2495Z" fill="white" stroke="white" stroke-width="0.331852" stroke-miterlimit="10"/>
  <path d="M144.69 24.9258V9.03564H146.466V24.9258H144.69Z" fill="white"/>
  <path d="M145.093 24.3568V24.5227H145.259H145.897H146.063V24.3568V9.60444V9.43851H145.897H145.259H145.093V9.60444V24.3568ZM144.287 25.3286V8.63259H146.869V25.3286H144.287Z" fill="white" stroke="white" stroke-width="0.331852" stroke-miterlimit="10"/>
  <path d="M170.247 9.03564H172.525L165.923 16.9807L172.564 24.9258H170.247L164.341 17.8721H159.245V24.9258H157.43V9.03564H159.245V16.0893H164.341L170.247 9.03564Z" fill="white"/>
  <path d="M170.059 8.63259H173.384L166.536 16.8735L166.448 16.9799L166.537 17.086L173.425 25.3286H170.059L164.202 18.3344L164.152 18.275H164.075H159.814H159.648V18.4409V25.3286H157.027V8.63259H159.648V15.5203V15.6863H159.814H164.075H164.152L164.202 15.6269L170.059 8.63259ZM157.833 24.3568V24.5227H157.999H158.676H158.842V24.3568V17.469H164.529L170.386 24.4633L170.435 24.5227H170.513H171.347H171.702L171.474 24.2504L165.399 16.9814L171.44 9.71048L171.666 9.43851H171.313H170.513H170.435L170.386 9.49791L164.529 16.4922H158.842V9.60444V9.43851H158.676H157.999H157.833V9.60444V24.3568Z" fill="white" stroke="white" stroke-width="0.331852" stroke-miterlimit="10"/>
</svg>